<svg width="386" height="545" viewBox="0 0 386 545" fill="none" xmlns="http://www.w3.org/2000/svg">
<path d="M192.968 283.796C227.489 283.796 255.475 255.857 255.475 221.392C255.475 186.927 227.489 158.988 192.968 158.988C158.446 158.988 130.461 186.927 130.461 221.392C130.461 255.857 158.446 283.796 192.968 283.796Z" stroke="black" stroke-width="8" stroke-miterlimit="10"/>
<path d="M192.968 268.584C219.074 268.584 240.237 247.455 240.237 221.392C240.237 195.329 219.074 174.201 192.968 174.201C166.861 174.201 145.698 195.329 145.698 221.392C145.698 247.455 166.861 268.584 192.968 268.584Z" stroke="black" stroke-width="8" stroke-miterlimit="10"/>
<path d="M273.111 398.959H112.824C105.821 398.959 100.18 393.327 100.18 386.336V319.465C100.18 312.474 105.821 306.842 112.824 306.842H273.111C280.114 306.842 285.755 312.474 285.755 319.465V386.336C285.755 393.327 280.114 398.959 273.111 398.959Z" stroke="black" stroke-width="8" stroke-miterlimit="10"/>
<path d="M312.729 224.694V385.624C312.729 410.158 292.823 430.096 268.183 430.096H117.752C93.1769 430.096 73.2058 410.158 73.2058 385.624V224.694C73.2058 215.242 74.3081 206.05 76.383 197.246C85.5257 158.405 113.667 126.815 150.497 112.897C163.659 107.912 177.989 105.194 192.903 105.194C207.816 105.194 222.146 107.912 235.309 112.897C251.325 118.982 265.655 128.304 277.585 140.215C293.083 155.687 304.3 175.301 309.487 197.311C311.627 206.05 312.729 215.242 312.729 224.694Z" stroke="black" stroke-width="8" stroke-miterlimit="10"/>
<path d="M270.647 370.217L246.462 354.098C245.424 353.386 244.063 353.386 242.96 354.098L218.839 370.217L195.496 337.008C194.264 335.26 191.606 335.26 190.374 337.008L167.031 370.217L142.975 354.098C141.938 353.386 140.576 353.386 139.474 354.098L115.353 370.217" stroke="#AAD037" stroke-width="8" stroke-miterlimit="10"/>
<path d="M331.079 206.244V290.658C331.079 295.643 327.059 299.656 322.067 299.656H312.729V224.694C312.729 215.242 311.627 206.05 309.552 197.246H322.067C327.059 197.246 331.079 201.26 331.079 206.244Z" stroke="black" stroke-width="8" stroke-miterlimit="10"/>
<path d="M76.4478 197.246C74.3729 206.05 73.2706 215.242 73.2706 224.694V299.656H63.9335C58.9407 299.656 54.9205 295.643 54.9205 290.658V206.244C54.9205 201.26 58.9407 197.246 63.9335 197.246H76.4478Z" stroke="black" stroke-width="8" stroke-miterlimit="10"/>
<path d="M235.439 94.5771V112.897C222.276 107.912 207.946 105.194 193.032 105.194C178.119 105.194 163.789 107.912 150.626 112.897V94.5771C150.626 86.1616 157.499 79.2998 165.929 79.2998H220.136C228.565 79.235 235.439 86.0969 235.439 94.5771Z" stroke="black" stroke-width="8" stroke-miterlimit="10"/>
<path d="M234.855 430.031H151.08V445.762H234.855V430.031Z" stroke="black" stroke-width="8" stroke-miterlimit="10"/>
<path d="M254.178 445.827H131.757V468.872H254.178V445.827Z" stroke="black" stroke-width="8" stroke-miterlimit="10"/>
<path d="M192.968 237.123C201.67 237.123 208.724 230.08 208.724 221.392C208.724 212.704 201.67 205.662 192.968 205.662C184.266 205.662 177.211 212.704 177.211 221.392C177.211 230.08 184.266 237.123 192.968 237.123Z" stroke="black" stroke-width="8" stroke-miterlimit="10"/>
<path d="M265.525 385.947H120.475C117.687 385.947 115.353 383.681 115.353 380.833V325.032C115.353 322.248 117.622 319.918 120.475 319.918H265.59C268.378 319.918 270.712 322.184 270.712 325.032V380.833C270.647 383.617 268.378 385.947 265.525 385.947Z" stroke="black" stroke-width="8" stroke-miterlimit="10"/>
</svg>
